<?xml version="1.0" encoding="UTF-8" standalone="no"?>
<svg
   xmlns:dc="http://purl.org/dc/elements/1.1/"
   xmlns:cc="http://creativecommons.org/ns#"
   xmlns:rdf="http://www.w3.org/1999/02/22-rdf-syntax-ns#"
   xmlns:svg="http://www.w3.org/2000/svg"
   xmlns="http://www.w3.org/2000/svg"
   viewBox="0 0 977.66669 248.96001"
   height="248.96001"
   width="977.66669"
   xml:space="preserve"
   id="svg2"
   version="1.1"><metadata
     id="metadata8"><rdf:RDF><cc:Work
         rdf:about=""><dc:format>image/svg+xml</dc:format><dc:type
           rdf:resource="http://purl.org/dc/dcmitype/StillImage" /></cc:Work></rdf:RDF></metadata><defs
     id="defs6" /><g
     transform="matrix(1.3333333,0,0,-1.3333333,0,248.96)"
     id="g10"><g
       transform="scale(0.1)"
       id="g12"><path
         id="path14"
         style="fill:#52afe6;fill-opacity:1;fill-rule:nonzero;stroke:none"
         d="m 4198.64,1570.32 c 0,0 -81.57,1.32 -142.31,-0.96 -84.84,-5.69 -143.22,-39.69 -207.81,-128.37 h -3.77 c 0,0 0,10.39 0,15.72 v 0.3 0 c -3.38,34.95 -13.5,62.07 -40.79,88.1 -29.96,28.91 -64.07,26.53 -104.73,26.53 h -50.55 V 664.738 l -0.93,-15.636 c 0,-5.543 0.31,-11.243 0.93,-16.493 v -0.558 0 c 3.38,-34.75 17.02,-64.821 41.43,-90.922 28.3,-29.918 62.59,-45.008 103.09,-45.008 h 50.19 v 135.93 h 0.21 v 389.709 c 0,156.24 71.57,249.39 109.48,283.53 104.09,93.9 147.75,59.24 199.67,103.81 11.43,9.82 45.89,36.33 45.89,122.41 v 38.81" /><path
         id="path16"
         style="fill:#52afe6;fill-opacity:1;fill-rule:nonzero;stroke:none"
         d="m 1088.94,1328.64 c -10.61,0.52 -20.47,6.27 -25.75,15.99 -94.432,172.98 -260.225,280.23 -455.87,300.31 -16.828,1.65 -29.172,16.74 -27.504,33.95 1.707,16.7 17.622,29 33.817,27.41 211.707,-20.85 400.617,-140.52 504.937,-331.46 7.97,-15.03 1.49,-34.25 -13.52,-42.43 -5.11,-2.78 -10.7,-4.03 -16.11,-3.77" /><path
         id="path18"
         style="fill:#52afe6;fill-opacity:1;fill-rule:nonzero;stroke:none"
         d="m 1243.41,1383.35 c -10.67,0.56 -20.87,6.32 -26.07,16.8 -118.17,232.78 -352.914,387.98 -612.649,405.39 -16.984,1.16 -29.945,15.82 -28.839,32.89 1.207,16.76 15.492,29.59 32.273,28.77 l 0.594,-0.02 c 281.488,-18.99 535.831,-187.01 663.621,-439.13 7.73,-15.22 1.54,-33.72 -13.49,-41.49 -4.9,-2.42 -10.16,-3.51 -15.44,-3.21" /><path
         id="path20"
         style="fill:#52afe6;fill-opacity:1;fill-rule:nonzero;stroke:none"
         d="m 6126.82,1435.1 v 0.45 c -3.36,34.68 -17.1,64.81 -41.49,90.91 -28.31,30.05 -62.59,45.18 -103.16,45.18 H 5930.3 V 686.07 l 0.62,-36.968 c 0,-5.543 0.16,-11.243 0.92,-16.493 v -0.558 c 3.29,-34.75 17,-64.821 41.4,-90.922 28.42,-29.918 62.69,-45.008 103.13,-45.008 h 50.15 l 0.24,135.93 1.08,737.759 c -0.4,40.44 -0.4,60.09 -1.02,65.29" /><path
         id="path22"
         style="fill:#52afe6;fill-opacity:1;fill-rule:nonzero;stroke:none"
         d="m 5675.4,599.488 c 0,-52.769 -42.79,-95.636 -95.6,-95.636 -52.8,0 -95.51,42.867 -95.51,95.636 0,52.692 42.71,95.543 95.51,95.543 52.81,0 95.6,-42.851 95.6,-95.543" /><path
         id="path24"
         style="fill:#52afe6;fill-opacity:1;fill-rule:nonzero;stroke:none"
         d="m 6791.77,686.359 c -198.01,0 -358.51,160.512 -358.51,358.491 0,197.99 160.5,358.52 358.51,358.52 198,0 358.5,-160.53 358.5,-358.52 0,-197.979 -160.5,-358.491 -358.5,-358.491 z m 2.86,896.251 c -309.21,0 -537.67,-252.76 -537.67,-531.28 0,-258.35 203.29,-544.228 537.67,-544.228 338.21,0 537.84,291.296 537.84,540.418 0,291.45 -235.56,535.09 -537.84,535.09" /><path
         id="path26"
         style="fill:#52afe6;fill-opacity:1;fill-rule:nonzero;stroke:none"
         d="m 4693.69,681.449 c -198.02,0 -358.52,160.539 -358.52,358.521 0,197.98 160.5,358.51 358.52,358.51 197.99,0 358.49,-160.53 358.49,-358.51 0,-197.982 -160.5,-358.521 -358.49,-358.521 z m 379.2,733.991 c -105.45,105.54 -232.09,158.36 -379.22,158.36 -149.31,0 -276.17,-52.82 -380.74,-158.36 -104.69,-105.35 -157.16,-232.08 -157.16,-379.26 0,-149.426 52.47,-276.289 157.16,-380.879 104.57,-104.621 231.43,-157.02 380.74,-157.02 105.83,0 201.12,27.297 285.41,81.328 4.04,-4.687 8.17,-9.57 12.75,-14.25 44.27,-44.898 97.91,-67.078 160.85,-67.078 h 78.61 v 529.439 c 0,2.82 0,5.58 0,8.46 0,147.18 -52.8,273.91 -158.4,379.26" /><path
         id="path28"
         style="fill:#52afe6;fill-opacity:1;fill-rule:nonzero;stroke:none"
         d="m 2978.62,679.699 c -196.82,0 -356.36,159.539 -356.36,356.331 0,196.8 159.54,356.36 356.36,356.36 196.8,0 356.36,-159.56 356.36,-356.36 0,-196.792 -159.56,-356.331 -356.36,-356.331 z m -2.36,894.101 c -309.25,0 -537.55,-252.78 -537.55,-531.28 0,-258.348 203.44,-544.239 537.55,-544.239 338.18,0 537.96,291.328 537.96,540.419 0,291.47 -235.62,535.1 -537.96,535.1" /><path
         id="path30"
         style="fill:#52afe6;fill-opacity:1;fill-rule:nonzero;stroke:none"
         d="m 1746.38,681.449 c -198,0 -358.48,160.539 -358.48,358.521 0,197.98 160.48,358.51 358.48,358.51 198.03,0 358.51,-160.53 358.51,-358.51 0,-197.982 -160.48,-358.521 -358.51,-358.521 z m 488.84,890.821 c -42.57,0 -78.62,-15.02 -108.47,-45.27 -21.17,-21.39 -34.49,-46.16 -40.57,-73.5 -24.06,19.61 -49.89,37.15 -77.25,52.41 -69.19,41.49 -158.95,70.55 -256.61,70.55 -201.45,0 -345.17,-92.56 -433.57,-212.98 -69.89,-91.18 -110.44,-203.75 -110.44,-320.96 0,-258.348 203.44,-544.239 537.57,-544.239 144.41,0 263.45,53.219 352.62,133.508 -0.01,-48.969 -0.09,-120.519 -0.27,-125.059 -8.14,-245.378 -159.2,-332.671 -353.29,-334.511 -152.05,0 -231.06,75.261 -269.27,122.511 -10.98,17.79 -20.09,32.442 -25.32,40.282 -21.78,32.828 -54.32,58.84 -95.9,68.808 -41.8,9.899 -82.3,8.071 -118.9,-14.558 l -28.01,-20.653 c 0,0 49.13,-87.507 88.24,-138.898 0.77,-1.012 2.01,-2.02 2.76,-3.18 95.13,-138.9919 250.24,-226.5427188 444.57,-226.5427188 336.69,0 536.85,194.2497188 543.89,513.9417188 0,5.621 0.17,160.929 0.17,166.679 v 892.331 l -51.95,-0.67" /><path
         id="path32"
         style="fill:#52afe6;fill-opacity:1;fill-rule:nonzero;stroke:none"
         d="m 914,1269.68 c -5.43,-3.95 -11.781,-6.08 -18.148,-6.08 -9.625,0 -19.274,4.62 -25.332,12.97 -64.61,89.54 -159.801,148.57 -267.985,166.36 -17.086,2.73 -28.668,18.87 -25.847,35.96 2.941,17.04 18.937,28.48 35.957,25.72 124.531,-20.52 234.105,-88.55 308.585,-191.46 10.016,-13.84 7.071,-33.41 -7.23,-43.47 z M 875.762,707.879 c 0,0 -82.528,25.41 -129.18,41.762 -58.73,-42.032 -130.684,-66.762 -208.426,-66.762 -197.996,0 -358.488,160.512 -358.488,358.501 0,198 160.492,358.51 358.488,358.51 198.012,0 358.516,-160.51 358.516,-358.51 0,-68.767 -19.356,-132.985 -52.926,-187.579 1.317,-9.762 32.016,-145.922 32.016,-145.922 z m 199.758,326.931 c 0,147.27 -52.78,273.84 -158.54,379.37 -105.453,105.63 -231.968,158.23 -379.296,158.23 -149.235,0 -276.286,-52.6 -380.801,-158.23 C 52.3516,1308.65 0,1182.08 0,1034.81 0,885.445 52.3516,758.539 156.883,653.852 261.398,549.301 388.449,496.879 537.684,496.879 c 105.941,0 201.058,27.359 285.464,81.312 4.188,-4.8 8.239,-9.461 12.821,-14.211 44.187,-44.878 97.761,-67.101 160.996,-67.101 h 78.555 v 529.511 h -0.3 c 0,2.84 0.3,5.53 0.3,8.42" /><path
         id="path34"
         style="fill:#52afe6;fill-opacity:1;fill-rule:nonzero;stroke:none"
         d="m 705.301,1224.54 c 0,-34.64 -28.098,-62.77 -62.742,-62.77 -34.633,0 -62.731,28.13 -62.731,62.77 0,34.58 28.098,62.7 62.731,62.7 34.644,0 62.742,-28.12 62.742,-62.7" /></g></g></svg>