<?xml version="1.0"?>
<svg xmlns="http://www.w3.org/2000/svg" height="512px" viewBox="-12 0 511 512" width="512px" class=""><g><path d="m85.832031 247.464844h-34.132812c-4.710938 0-8.53125 3.824218-8.53125 8.535156s3.820312 8.535156 8.53125 8.535156h34.132812c4.714844 0 8.535157-3.824218 8.535157-8.535156s-3.820313-8.535156-8.535157-8.535156zm0 0" data-original="#000000" class="active-path" data-old_color="#000000" fill="#FFFFFF"/><path d="m410.101562 247.464844h-34.136718c-4.710938 0-8.53125 3.824218-8.53125 8.535156s3.820312 8.535156 8.53125 8.535156h34.136718c4.710938 0 8.53125-3.824218 8.53125-8.535156s-3.820312-8.535156-8.53125-8.535156zm0 0" data-original="#000000" class="active-path" data-old_color="#000000" fill="#FFFFFF"/><path d="m435.699219 0h-238.933594c-28.261719.03125-51.167969 22.9375-51.199219 51.199219v119.46875c.015625 4.574219.648438 9.125 1.878906 13.53125-73.015624 8.949219-146.945312 31.988281-146.945312 71.800781v179.199219c0 49.882812 118.707031 76.800781 230.398438 76.800781 5.34375 0 10.699218-.085938 16.058593-.203125.332031.089844.667969.15625 1.007813.203125.429687-.050781.851562-.136719 1.265625-.257812 10.679687-.277344 21.359375-.796876 31.9375-1.558594.304687.085937.617187.148437.933593.195312.664063-.050781 1.320313-.183594 1.953126-.394531 10.726562-.816406 21.328124-1.886719 31.699218-3.195313.171875.011719.308594.097657.480469.097657.777344-.046875 1.542969-.199219 2.277344-.460938 10.855469-1.417969 21.4375-3.101562 31.617187-5.054687.085938 0 .152344.050781.238282.050781 1.191406-.007813 2.367187-.265625 3.453124-.761719 11.453126-2.289062 22.355469-4.925781 32.527344-7.886718.613282-.105469 1.214844-.277344 1.792969-.511719 11.4375-3.320313 22.597656-7.527344 33.378906-12.585938.355469-.140625.703125-.304687 1.039063-.496093 23.96875-11.699219 38.742187-26.40625 38.742187-43.980469v-179.199219c0-9.429688-4.542969-21.84375-22.21875-34.304688 26.878907-1.789062 47.777344-24.09375 47.816407-51.027343v-119.46875c-.03125-28.261719-22.933594-51.167969-51.199219-51.199219zm8.535156 307.542969c-41.652344 26.535156-120.746094 42.324219-213.335937 42.324219-92.585938 0-171.679688-15.789063-213.332032-42.324219v-21.078125c36.738282 30.277344 127.101563 46.335937 213.332032 46.335937 86.234374 0 176.597656-16.058593 213.335937-46.332031zm-17.066406 149.8125v-30.519531c0-4.710938-3.820313-8.53125-8.535157-8.53125-4.710937 0-8.53125 3.820312-8.53125 8.53125v39.582031c-5.15625 2.273437-10.875 4.464843-17.066406 6.5625v-29.078125c0-4.710938-3.824218-8.53125-8.535156-8.53125s-8.535156 3.820312-8.535156 8.53125v34.257812c-5.410156 1.46875-11.109375 2.863282-17.066406 4.179688v-29.902344c0-4.714844-3.820313-8.535156-8.53125-8.535156-4.714844 0-8.535157 3.820312-8.535157 8.535156v33.316406c-5.511719.992188-11.199219 1.917969-17.066406 2.773438v-27.558594c0-4.710938-3.820313-8.53125-8.53125-8.53125-4.714844 0-8.535156 3.820312-8.535156 8.53125v29.777344c-5.546875.632812-11.257813 1.1875-17.066407 1.683594v-22.925782c0-4.710937-3.820312-8.535156-8.53125-8.535156-4.714843 0-8.535156 3.824219-8.535156 8.535156v24.167969c-5.589844.335937-11.277344.601563-17.066406.808594v-24.976563c0-4.710937-3.820312-8.535156-8.535156-8.535156-4.710938 0-8.53125 3.824219-8.53125 8.535156v25.367188c-2.832032.03125-5.664063.066406-8.535156.066406-125.71875 0-213.332032-31.488281-213.332032-59.734375v-107.777344c64.554688 35.441407 169.164063 39.507813 213.332032 39.507813 44.171874 0 148.78125-4.066406 213.335937-39.507813v107.773438c0 7.371093-6.015625 14.960937-17.066406 22.15625zm-196.269531-141.621094c-125.71875 0-213.332032-31.488281-213.332032-59.734375 0-19.671875 48.269532-45.484375 137.667969-55.503906 9.589844 13.398437 25.054687 21.355468 41.53125 21.371094h56.429687l-19.914062 59.734374h-19.449219c-4.710937 0-8.53125 3.820313-8.53125 8.53125 0 4.714844 3.820313 8.535157 8.53125 8.535157h34.132813c4.417968-.023438 8.070312-3.4375 8.394531-7.839844l130.261719-68.960937h15.726562c26.601563 10.4375 41.886719 22.832031 41.886719 34.132812 0 28.25-87.613281 59.734375-213.335937 59.734375zm238.933593-145.066406c-.019531 18.84375-15.289062 34.113281-34.132812 34.132812h-51.199219c-1.390625 0-2.761719.339844-3.992188.992188l-126.246093 66.832031 18.867187-56.589844c.867188-2.605468.433594-5.464844-1.171875-7.691406s-4.179687-3.542969-6.921875-3.542969h-68.269531c-18.84375-.019531-34.113281-15.289062-34.132813-34.132812v-119.46875c.019532-18.84375 15.289063-34.113281 34.132813-34.132813h238.933594c18.84375.019532 34.113281 15.289063 34.132812 34.132813zm0 0" data-original="#000000" class="active-path" data-old_color="#000000" fill="#FFFFFF"/><path d="m367.433594 68.265625c-4.714844 0-8.535156 3.820313-8.535156 8.535156v68.265625c0 4.714844 3.820312 8.535156 8.535156 8.535156 4.710937 0 8.53125-3.820312 8.53125-8.535156v-68.265625c0-4.714843-3.820313-8.535156-8.53125-8.535156zm0 0" data-original="#000000" class="active-path" data-old_color="#000000" fill="#FFFFFF"/><path d="m265.035156 68.265625c-4.714844 0-8.535156 3.820313-8.535156 8.535156v68.265625c0 4.714844 3.820312 8.535156 8.535156 8.535156 4.710938 0 8.53125-3.820312 8.53125-8.535156v-68.265625c0-4.714843-3.820312-8.535156-8.53125-8.535156zm0 0" data-original="#000000" class="active-path" data-old_color="#000000" fill="#FFFFFF"/><path d="m333.300781 34.132812c-4.714843 0-8.535156 3.820313-8.535156 8.535157v145.066406c0 4.710937 3.820313 8.53125 8.535156 8.53125 4.710938 0 8.53125-3.820313 8.53125-8.53125v-145.066406c0-4.714844-3.820312-8.535157-8.53125-8.535157zm0 0" data-original="#000000" class="active-path" data-old_color="#000000" fill="#FFFFFF"/><path d="m299.167969 34.132812c-4.714844 0-8.535157 3.820313-8.535157 8.535157v145.066406c0 4.710937 3.820313 8.53125 8.535157 8.53125 4.710937 0 8.53125-3.820313 8.53125-8.53125v-145.066406c0-4.714844-3.820313-8.535157-8.53125-8.535157zm0 0" data-original="#000000" class="active-path" data-old_color="#000000" fill="#FFFFFF"/><path d="m230.898438 93.867188c-4.710938 0-8.53125 3.820312-8.53125 8.53125v17.066406c0 4.714844 3.820312 8.535156 8.53125 8.535156 4.714843 0 8.535156-3.820312 8.535156-8.535156v-17.066406c0-4.710938-3.820313-8.53125-8.535156-8.53125zm0 0" data-original="#000000" class="active-path" data-old_color="#000000" fill="#FFFFFF"/><path d="m196.765625 76.800781c-4.710937 0-8.53125 3.820313-8.53125 8.53125v51.203125c0 4.710938 3.820313 8.53125 8.53125 8.53125 4.714844 0 8.535156-3.820312 8.535156-8.53125v-51.203125c0-4.710937-3.820312-8.53125-8.535156-8.53125zm0 0" data-original="#000000" class="active-path" data-old_color="#000000" fill="#FFFFFF"/><path d="m435.699219 76.800781c-4.710938 0-8.53125 3.820313-8.53125 8.53125v51.203125c0 4.710938 3.820312 8.53125 8.53125 8.53125 4.714843 0 8.535156-3.820312 8.535156-8.53125v-51.203125c0-4.710937-3.820313-8.53125-8.535156-8.53125zm0 0" data-original="#000000" class="active-path" data-old_color="#000000" fill="#FFFFFF"/><path d="m401.566406 93.867188c-4.710937 0-8.53125 3.820312-8.53125 8.53125v17.066406c0 4.714844 3.820313 8.535156 8.53125 8.535156 4.714844 0 8.535156-3.820312 8.535156-8.535156v-17.066406c0-4.710938-3.820312-8.53125-8.535156-8.53125zm0 0" data-original="#000000" class="active-path" data-old_color="#000000" fill="#FFFFFF"/></g> </svg>
